<svg xmlns="http://www.w3.org/2000/svg" viewBox="0 0 64 64" role="img" aria-label="ChessMoveReviewer graph and chess piece icon">
  <!-- Transparent background -->

  <!-- Big red graph line, edge-to-edge -->
  <g fill="none" stroke-linecap="round" stroke-linejoin="round">
    <polyline points="2,53 14,41 24,46 35,30 48,19 62,8" stroke="#ef4444" stroke-width="6"/>
    <circle cx="2" cy="53" r="2.8" fill="#ef4444"/>
    <circle cx="14" cy="41" r="2.8" fill="#ef4444"/>
    <circle cx="24" cy="46" r="2.8" fill="#ef4444"/>
    <circle cx="35" cy="30" r="2.8" fill="#ef4444"/>
    <circle cx="48" cy="19" r="2.8" fill="#ef4444"/>
    <circle cx="62" cy="8" r="2.8" fill="#ef4444"/>
  </g>

  <!-- Large chess pawn filling the favicon -->
  <g fill="#0f172a" stroke="#e2e8f0" stroke-width="2" stroke-linejoin="round">
    <circle cx="42" cy="16" r="8"/>
    <path d="M31 33c0-6.4 4.9-11.5 11-11.5S53 26.6 53 33c0 4.7-1.8 8.8-4.8 11.5 4.7 2.2 7.8 7.1 7.8 12.5H28c0-5.4 3.1-10.3 7.8-12.5-3-2.7-4.8-6.8-4.8-11.5Z"/>
    <rect x="22" y="55" width="40" height="5" rx="2.5"/>
    <rect x="19" y="60" width="45" height="4" rx="2"/>
  </g>
</svg>
